<svg height="512" viewBox="0 0 52 60" width="512" xmlns="http://www.w3.org/2000/svg"><g id="Page-1" fill="none" fill-rule="evenodd"><g id="018---Scissors" fill="rgb(0,0,0)" fill-rule="nonzero"><path id="Shape" d="m15.4 39.468c-4.865-2.583-11.146-.333-14 5.015-1.36037346 2.5062384-1.74338261 5.4277966-1.075 8.2.61595302 2.6576547 2.34472129 4.9222464 4.746 6.217 1.33783866.7118414 2.8305718 1.0827921 4.346 1.08 1.1798376-.0045809 2.3497881-.2154224 3.457-.623 2.6689804-.9948935 4.8741635-2.9442483 6.189-5.471l6.937-13.059 6.938 13.049c1.3147325 2.5273587 3.5193121 4.47792 6.188 5.475 1.1065566.4089435 2.2763043.6204864 3.456.625 1.5169056.0024637 3.0110125-.3691739 4.35-1.082 2.4002892-1.294969 4.1282463-3.5590882 4.744-6.216.6666972-2.769772.2833495-5.6883445-1.076-8.192-2.848-5.354-9.127-7.6-14-5.017l-.882.469-20.652-38.851c-.5191587-.97171136-1.7263889-1.34058724-2.7-.825-1.6421539.86398867-2.86753485 2.3524661-3.4 4.13-.55550211 1.77500419-.37200706 3.69899847.509 5.337l11.425 21.506-4.626 8.7zm-4.528-34.491c.3800084-1.26966553 1.2551147-2.33291248 2.428-2.95l21.127 39.733c.1243711.2347011.3370074.410279.591.488.2536046.0755787.5267074.0490221.761-.074l1.766-.939c3.895-2.074 8.96-.192 11.289 4.191 1.1267397 2.0674044 1.447384 4.4790057.9 6.769-.4636164 2.1136636-1.8318799 3.9171843-3.7425178 4.9330468-1.9106378 1.0158626-4.1709518 1.1416118-6.1824822.3439532-2.2040635-.8280101-4.0231565-2.4433191-5.106-4.534l-23.47-44.148c-.6281971-1.17073815-.7583229-2.54516962-.361-3.813zm6.11 37.271c.2538157-.077483.4664239-.2526779.591-.487l4.462-8.4 2.836 5.339-7.571 14.242c-1.0833422 2.0901391-2.903369 3.7042193-5.108 4.53-2.011239.7973394-4.271037.6721069-6.18185772-.3425836-1.91082072-1.0146904-3.28023508-2.8166545-3.74614228-4.9294164-.54809015-2.2915991-.22744164-4.7050136.9-6.774 2.337-4.375 7.4-6.255 11.3-4.189l1.76.94c.2334224.1226828.505855.1482009.758.071z"/><path id="Shape" d="m13.518 43c-1.4934492-.7699151-3.2546121-.8246644-4.793-.149-1.63470618.6930259-2.9757209 1.9357019-3.791 3.513-1.812 3.408-.91 7.444 2.01 9 .76746447.4079468 1.6238545.6198973 2.493.617.7897336-.0056411 1.5708574-.1645829 2.3-.468 1.6349849-.692595 2.9761294-1.9353912 3.791-3.513l1.878-3.531c.373879-.7024149.4533839-1.5245916.2210214-2.2856304-.2323625-.7610387-.7575549-1.3985875-1.4600214-1.7723696zm2.123 4.526-1.878 3.532c-.5958728 1.1641261-1.5794639 2.0837007-2.781 2.6-.99019114.4464337-2.12876431.4232949-3.1-.063-1.945-1.034-2.482-3.857-1.182-6.295.5955549-1.1640057 1.57879066-2.0835787 2.78-2.6.48927516-.2046788 1.0136587-.3123404 1.544-.317.5417279-.0034104 1.0759008.127127 1.555.38l2.65 1.408c.2348691.124766.4103639.3379512.4876792.5924161.0773152.2544649.0500816.529246-.0756792.7635839z"/><path id="Shape" d="m32.262 26.79c.7391985-.0003197 1.4179463-.4083376 1.765-1.061l8.507-16c.878053-1.63578954 1.0635605-3.55534107.515-5.329-.5348708-1.78828591-1.7696777-3.2845516-3.424-4.149-.9743426-.50850222-2.1764325-.13226193-2.687.841l-9.272 17.432c-.3111177.5862823-.3111177 1.2887177 0 1.875l2.828 5.329c.3472902.6540008 1.0275088 1.0625936 1.768 1.062zm-2.829-7.328 9.267-17.437c1.1775029.61804238 2.0550246 1.68600036 2.433 2.961.3914681 1.26670647.2592935 2.63743292-.367 3.806l-8.5 16v-.005z"/><path id="Shape" d="m36.473 52c.8156677 1.576768 2.156596 2.8190102 3.791 3.512.7291426.3034171 1.5102664.4623589 2.3.468.8688123.0027738 1.724849-.2091743 2.492-.617 1.4718721-.8089265 2.500534-2.2383991 2.8-3.891.6550253-3.5880259-1.2420543-7.1557606-4.583-8.619-1.5371812-.6756195-3.2971407-.6216082-4.79.147l-2.648 1.408c-.7026397.3736089-1.2280483 1.0110827-1.4606032 1.7721375-.232555.7610548-.1531995 1.5833259.2206032 2.2858625zm-.113-4.472c-.2589174-.4876774-.0735868-1.0929119.414-1.352l2.649-1.408c.9708822-.4877235 2.110104-.5108754 3.1-.063 2.4460541 1.0983634 3.8362257 3.7152781 3.377 6.357-.1570061 1.0809746-.8192054 2.0226537-1.7833643 2.5360294-.964159.5133756-2.1151166.5371292-3.0996357.0639706-1.2016294-.5161566-2.1852634-1.4357712-2.781-2.6z"/></g></g></svg>